<?xml version="1.0" standalone="no"?>
<!DOCTYPE svg PUBLIC "-//W3C//DTD SVG 20010904//EN"
 "http://www.w3.org/TR/2001/REC-SVG-20010904/DTD/svg10.dtd">
<svg version="1.0" xmlns="http://www.w3.org/2000/svg"
 width="500.000000pt" height="500.000000pt" viewBox="0 0 500.000000 500.000000"
 preserveAspectRatio="xMidYMid meet">
<metadata>
Created by potrace 1.15, written by Peter Selinger 2001-2017
</metadata>
<g transform="translate(0.000000,500.000000) scale(0.100000,-0.100000)"
fill="#000000" stroke="none">
<path d="M2535 4645 c22 -14 109 -64 193 -112 83 -48 152 -90 152 -93 0 -4
-12 -12 -27 -19 -16 -7 -93 -47 -173 -89 l-145 -77 94 -7 c733 -52 1356 -560
1560 -1273 39 -138 53 -239 58 -420 8 -290 -35 -516 -145 -759 -239 -527 -699
-893 -1264 -1008 -98 -20 -143 -23 -343 -23 -240 0 -300 7 -470 56 -546 157
-982 561 -1173 1089 -79 218 -106 394 -99 645 7 291 51 467 182 730 93 187
179 308 321 449 262 263 582 431 934 492 102 17 111 21 290 122 102 57 186
105 188 106 1 2 -91 47 -205 101 l-207 98 -91 -11 c-275 -35 -621 -170 -870
-337 -511 -345 -848 -876 -942 -1485 -27 -174 -24 -494 5 -661 85 -477 289
-869 628 -1201 172 -169 330 -280 559 -393 241 -119 484 -189 749 -214 641
-63 1289 171 1738 626 162 164 248 275 350 453 447 777 366 1745 -203 2445
-71 88 -232 247 -324 320 -186 148 -448 290 -672 364 -191 64 -471 112 -643
111 l-45 -1 40 -24z"/>
</g>
</svg>
